HIERARCHY
ROOT Hips
{
	OFFSET -0.001795 -0.223333 0.028219
	CHANNELS 6 Xposition Yposition Zposition Zrotation Yrotation Xrotation 
	JOINT LeftUpLeg
	{
		OFFSET 0.069520 -0.091406 -0.006815
		CHANNELS 3 Zrotation Yrotation Xrotation
		JOINT LeftLeg
		{
			OFFSET 0.034277 -0.375199 -0.004496
			CHANNELS 3 Zrotation Yrotation Xrotation
			JOINT LeftFoot
			{
				OFFSET -0.013596 -0.397961 -0.043693
				CHANNELS 3 Zrotation Yrotation Xrotation
				JOINT LeftToe
				{
					OFFSET 0.026358 -0.055791 0.119288
					CHANNELS 3 Zrotation Yrotation Xrotation
					End Site
					{
						OFFSET 0.000000 0.000000 0.000000
					}
				}
			}
		}
	}
	JOINT RightUpLeg
	{
		OFFSET -0.067670 -0.090522 -0.004320
		CHANNELS 3 Zrotation Yrotation Xrotation
		JOINT RightLeg
		{
			OFFSET -0.038290 -0.382569 -0.008850
			CHANNELS 3 Zrotation Yrotation Xrotation
			JOINT RightFoot
			{
				OFFSET 0.015774 -0.398415 -0.042312
				CHANNELS 3 Zrotation Yrotation Xrotation
				JOINT RightToe
				{
					OFFSET -0.025372 -0.048144 0.123348
					CHANNELS 3 Zrotation Yrotation Xrotation
					End Site
					{
						OFFSET 0.000000 0.000000 0.000000
					}
				}
			}
		}
	}
	JOINT Spine
	{
		OFFSET -0.002533 0.108963 -0.026696
		CHANNELS 3 Zrotation Yrotation Xrotation
		JOINT Spine1
		{
			OFFSET 0.005487 0.135180 0.001092
			CHANNELS 3 Zrotation Yrotation Xrotation
			JOINT Spine2
			{
				OFFSET 0.001457 0.052922 0.025425
				CHANNELS 3 Zrotation Yrotation Xrotation
				JOINT Neck
				{
					OFFSET -0.002778 0.213870 -0.042857
					CHANNELS 3 Zrotation Yrotation Xrotation
					JOINT Head
					{
						OFFSET 0.005152 0.064970 0.051349
						CHANNELS 3 Zrotation Yrotation Xrotation
						End Site
						{
							OFFSET 0.000000 0.000000 0.000000
						}
					}
				}
				JOINT LeftShoulder
				{
					OFFSET 0.078845 0.121749 -0.034090
					CHANNELS 3 Zrotation Yrotation Xrotation
					JOINT LeftArm
					{
						OFFSET 0.090977 0.030469 -0.008868
						CHANNELS 3 Zrotation Yrotation Xrotation
						JOINT LeftForeArm
						{
							OFFSET 0.259612 -0.012772 -0.027456
							CHANNELS 3 Zrotation Yrotation Xrotation
							JOINT LeftHand
							{
								OFFSET 0.249234 0.008986 -0.001171
								CHANNELS 3 Zrotation Yrotation Xrotation
								End Site
								{
									OFFSET 0.000000 0.000000 0.000000
								}
							}
						}
					}
				}
				JOINT RightShoulder
				{
					OFFSET -0.081759 0.118833 -0.038615
					CHANNELS 3 Zrotation Yrotation Xrotation
					JOINT RightArm
					{
						OFFSET -0.096012 0.032551 -0.009143
						CHANNELS 3 Zrotation Yrotation Xrotation
						JOINT RightForeArm
						{
							OFFSET -0.253742 -0.013329 -0.021401
							CHANNELS 3 Zrotation Yrotation Xrotation
							JOINT RightHand
							{
								OFFSET -0.255298 0.007772 -0.005559
								CHANNELS 3 Zrotation Yrotation Xrotation
								End Site
								{
									OFFSET 0.000000 0.000000 0.000000
								}
							}
						}
					}
				}
			}
		}
	}
}
MOTION
Frames: 6
Frame Time: 0.050000
0.015526 0.946937 -0.030780 0.772072 -10.291169 5.874090 4.251553 -0.194285 -2.958137 1.226896 0.039302 -4.315075 -0.143466 2.263302 8.846613 0.000000 0.000000 0.000000 -4.334671 0.561417 -5.149191 -6.018222 0.172400 -4.092567 3.437601 0.849957 10.716680 0.000000 0.000000 0.000000 4.028906 0.381315 -5.691434 1.039788 -0.448205 -3.277953 -8.693476 5.486924 3.079091 12.632852 -7.002456 -12.924850 0.000000 0.000000 0.000000 -0.677932 -9.734767 3.254620 -32.149637 -39.973988 6.268953 79.991502 -35.725237 -28.243514 0.000000 0.000000 0.000000 2.103925 -2.312887 -0.987164 51.209830 26.321438 6.641501 -107.714536 41.150980 -47.330625 0.000000 0.000000 0.000000 
0.015344 0.946976 -0.032762 0.537190 -10.974226 5.745730 4.580808 -0.165182 -2.735216 0.963968 0.042069 -3.921724 0.237383 2.808399 8.545329 0.000000 0.000000 0.000000 -4.317871 0.590562 -5.557358 -5.612417 0.178972 -3.670355 3.743574 1.151739 11.070487 0.000000 0.000000 0.000000 3.722650 0.389857 -5.810955 1.112270 -0.488991 -2.735872 -8.488560 5.592101 2.926267 12.649935 -7.255021 -11.950020 0.000000 0.000000 0.000000 1.544311 -11.815658 3.973641 -33.287703 -43.281373 7.561218 86.618470 -42.221672 -37.346916 0.000000 0.000000 0.000000 1.459115 0.670504 0.141903 51.582553 30.147041 8.482728 -112.909483 46.031104 -58.037221 0.000000 0.000000 0.000000 
0.014829 0.947079 -0.034041 0.261707 -10.755357 5.687770 5.053940 -0.156985 -2.812863 0.818260 0.045930 -3.699579 0.149955 2.537710 7.990582 0.000000 0.000000 0.000000 -3.941959 0.591356 -5.696257 -5.594958 0.230847 -3.054597 3.749399 1.502928 10.569068 0.000000 0.000000 0.000000 3.566330 0.375276 -5.702411 1.223542 -0.537908 -2.568699 -8.141344 5.440694 3.037300 13.134381 -7.623162 -11.803312 0.000000 0.000000 0.000000 2.128163 -13.689233 4.575089 -33.392910 -47.023082 8.725036 95.491871 -49.534869 -50.469765 0.000000 0.000000 0.000000 0.956968 4.202104 1.431950 50.539890 34.404668 10.214483 -123.319427 49.695597 -73.393509 0.000000 0.000000 0.000000 
0.013959 0.947384 -0.034794 -0.086940 -11.193286 5.597117 5.716055 -0.106177 -2.256416 0.536832 0.085809 -4.037781 0.385174 3.049439 8.488587 0.000000 0.000000 0.000000 -3.577811 0.567329 -5.424907 -5.453064 0.189546 -3.409460 4.160036 2.048463 10.915128 0.000000 0.000000 0.000000 3.497079 0.398671 -5.938588 1.541993 -0.691206 -1.384886 -8.338102 5.431732 2.249794 12.643079 -7.362651 -11.365531 0.000000 0.000000 0.000000 4.878503 -15.488659 5.039326 -33.823461 -50.562674 10.053327 102.061485 -53.853335 -60.474834 0.000000 0.000000 0.000000 -1.487704 7.055716 2.463106 50.099680 40.315478 12.999162 -126.769934 51.450002 -79.868634 0.000000 0.000000 0.000000 
0.012867 0.947469 -0.035201 -0.388643 -11.253891 5.650534 5.967343 -0.104749 -2.402216 0.876925 0.057951 -4.107684 0.246887 2.822497 8.610217 0.000000 0.000000 0.000000 -2.994541 0.568506 -5.564099 -5.722403 0.245891 -2.941992 4.276996 2.025902 11.300905 0.000000 0.000000 0.000000 3.451649 0.382988 -5.774489 1.459755 -0.651062 -1.773421 -8.333028 5.681115 2.434086 13.137176 -7.909301 -10.475533 0.000000 0.000000 0.000000 5.795600 -17.301251 5.525853 -32.639566 -52.721113 10.201044 106.745712 -55.138776 -66.205293 0.000000 0.000000 0.000000 -2.969597 8.769030 3.020326 48.864969 45.549522 15.138403 -128.250814 49.988036 -79.512233 0.000000 0.000000 0.000000 
0.011706 0.947871 -0.035293 -0.380172 -11.492322 5.780731 6.130329 -0.104936 -2.590578 1.200558 0.046037 -4.468583 -0.092836 2.431744 9.612296 0.000000 0.000000 0.000000 -2.826530 0.559128 -5.460233 -6.087365 0.236049 -3.325184 4.216024 1.616034 11.694759 0.000000 0.000000 0.000000 3.600436 0.411389 -6.032951 1.172764 -0.524566 -1.296505 -8.807396 6.039411 1.648269 12.772133 -7.853539 -9.430341 0.000000 0.000000 0.000000 6.736936 -17.631815 5.578881 -32.263400 -53.367672 10.203288 106.595938 -53.129799 -64.092478 0.000000 0.000000 0.000000 -4.116486 9.883041 3.352233 46.688264 48.737629 15.942117 -125.547067 46.051745 -70.739805 0.000000 0.000000 0.000000 
